<svg xmlns="http://www.w3.org/2000/svg" viewBox="0 0 100 100">
  <defs>
    <linearGradient id="bgGrad" x1="0%" y1="0%" x2="100%" y2="100%">
      <stop offset="0%" style="stop-color:#2563eb"/>
      <stop offset="100%" style="stop-color:#1d4ed8"/>
    </linearGradient>
    <linearGradient id="roofGrad" x1="0%" y1="0%" x2="0%" y2="100%">
      <stop offset="0%" style="stop-color:#f97316"/>
      <stop offset="100%" style="stop-color:#ea580c"/>
    </linearGradient>
  </defs>

  <!-- Fond arrondi -->
  <rect x="5" y="5" width="90" height="90" rx="18" fill="url(#bgGrad)"/>

  <!-- Maison stylisée -->
  <!-- Toit -->
  <path d="M50 18 L78 42 L22 42 Z" fill="url(#roofGrad)"/>

  <!-- Corps de la maison -->
  <rect x="28" y="42" width="44" height="36" fill="white" rx="2"/>

  <!-- Porte -->
  <rect x="42" y="54" width="16" height="24" fill="#1e40af" rx="2"/>

  <!-- Fenêtre gauche -->
  <rect x="32" y="48" width="8" height="8" fill="#60a5fa" rx="1"/>
  <line x1="36" y1="48" x2="36" y2="56" stroke="#1e40af" stroke-width="1"/>
  <line x1="32" y1="52" x2="40" y2="52" stroke="#1e40af" stroke-width="1"/>

  <!-- Fenêtre droite -->
  <rect x="60" y="48" width="8" height="8" fill="#60a5fa" rx="1"/>
  <line x1="64" y1="48" x2="64" y2="56" stroke="#1e40af" stroke-width="1"/>
  <line x1="60" y1="52" x2="68" y2="52" stroke="#1e40af" stroke-width="1"/>

  <!-- Coche de validation -->
  <circle cx="72" cy="72" r="14" fill="#22c55e"/>
  <path d="M64 72 L70 78 L80 66" stroke="white" stroke-width="3" fill="none" stroke-linecap="round" stroke-linejoin="round"/>
</svg>
